Coordinates
version=1
nRows=22
nColumns=24
inDegrees=yes

Units are S.I. units (second, meters, Newtons, ...)
Angles are in degrees.

endheader
time	pelvis_tilt	pelvis_list	pelvis_rotation	pelvis_tx	pelvis_ty	pelvis_tz	hip_flexion_r	hip_adduction_r	hip_rotation_r	knee_angle_r	ankle_angle_r	subtalar_angle_r	mtp_angle_r	hip_flexion_l	hip_adduction_l	hip_rotation_l	knee_angle_l	ankle_angle_l	subtalar_angle_l	mtp_angle_l	lumbar_extension	lumbar_bending	lumbar_rotation
      0.57066667	     -2.20324815	      0.45115949	      2.97566111	     -0.51821111	      1.06607871	      0.30861352	     15.11908944	      2.40975085	     -2.04987330	    -20.95095508	     10.25279052	     -5.30436143	      4.62662970	     20.62332314	     -4.84059706	     -5.59616037	    -71.75981279	      6.50460976	      2.86499146	      1.44513056	    -10.94641287	      2.67810276	      0.69318163
      0.57483333	     -2.16294723	      0.57449948	      2.91677591	     -0.51324551	      1.06729170	      0.30878875	     14.57547326	      2.31002501	     -2.00274084	    -20.54046092	     10.33556609	     -5.20549978	      4.62882637	     21.04994015	     -4.70890509	     -5.73424982	    -71.31307103	      6.74210848	      3.08701066	      1.46380499	    -11.03581809	      2.51572251	      0.87476903
      0.57900000	     -2.15509435	      0.69633420	      2.84924038	     -0.50827397	      1.06839295	      0.30896148	     14.07406242	      2.20749193	     -1.96709966	    -20.14022246	     10.37307217	     -5.11349602	      4.63024728	     21.49822122	     -4.58009087	     -5.88611658	    -70.81937525	      6.98609639	      3.32273569	      1.47926869	    -11.07092334	      2.35207695	      0.96617483
      0.58316667	     -2.09779353	      0.81485142	      2.76173990	     -0.50333804	      1.06953921	      0.30914642	     13.51908160	      2.11635568	     -1.88766321	    -19.73439918	     10.46565105	     -5.00965749	      4.63485341	     21.87265161	     -4.46129932	     -6.05066582	    -70.26456676	      7.23436451	      3.63401612	      1.50988695	    -11.20214950	      2.20594428	      1.20377402
      0.58733333	     -2.07888994	      0.93622186	      2.66309163	     -0.49838592	      1.07058013	      0.30933156	     13.01391798	      2.01783604	     -1.81614531	    -19.34119252	     10.50140820	     -4.91740159	      4.63758670	     22.27179060	     -4.34160979	     -6.23505031	    -69.65763199	      7.47283690	      3.94460567	      1.53232634	    -11.26554048	      2.04961873	      1.31727422
      0.59150000	     -2.04353727	      1.04879846	      2.55289054	     -0.49344641	      1.07160088	      0.30952497	     12.49069943	      1.93143864	     -1.72497192	    -18.94298005	     10.56802886	     -4.82791735	      4.64202513	     22.63727685	     -4.23683595	     -6.42855124	    -68.99981469	      7.71270623	      4.28387874	      1.56003828	    -11.35304888	      1.90920027	      1.49660745
      0.59566667	     -2.00331206	      1.16750717	      2.42909586	     -0.48850466	      1.07257843	      0.30973223	     11.96876106	      1.83752301	     -1.63737573	    -18.55401981	     10.62273131	     -4.73006550	      4.64651269	     22.97821569	     -4.13207288	     -6.64434279	    -68.28895122	      7.94059636	      4.61426106	      1.58590942	    -11.44151491	      1.73958668	      1.65598241
      0.59983333	     -1.96194021	      1.25145237	      2.30682337	     -0.48356974	      1.07349069	      0.30991801	     11.44069354	      1.78081748	     -1.53610372	    -18.15010330	     10.70546799	     -4.65347450	      4.65363783	     23.31287076	     -4.06575412	     -6.85193520	    -67.54761423	      8.17241417	      4.95254722	      1.62815490	    -11.53240537	      1.61984147	      1.93565122
      0.60400000	     -1.93498329	      1.36224741	      2.16455518	     -0.47864311	      1.07434734	      0.31011690	     10.94473104	      1.69180404	     -1.43005090	    -17.77709677	     10.74603204	     -4.56021608	      4.65820242	     23.63568656	     -3.97064368	     -7.08169188	    -66.73582146	      8.38097968	      5.27363775	      1.65573528	    -11.60205216	      1.48179130	      2.06740573
      0.60816667	     -1.90336026	      1.45604255	      2.01782625	     -0.47371811	      1.07514757	      0.31031792	     10.44436085	      1.62106227	     -1.31752077	    -17.40259623	     10.80996998	     -4.47224295	      4.66335203	     23.94158159	     -3.89938825	     -7.31883396	    -65.88640158	      8.59061355	      5.60185657	      1.68458722	    -11.68203086	      1.35197239	      2.24843678
      0.61233333	     -1.86599521	      1.52597241	      1.87364766	     -0.46879230	      1.07588466	      0.31051382	      9.93381566	      1.57608743	     -1.20209629	    -17.01595619	     10.89361038	     -4.40543624	      4.67044987	     24.23302498	     -3.85490977	     -7.54800633	    -65.00334606	      8.79384739	      5.90852909	      1.72564716	    -11.76306081	      1.23364535	      2.52207503
      0.61650000	     -1.83672088	      1.61036996	      1.71826476	     -0.46387518	      1.07658057	      0.31070534	      9.44271713	      1.51197124	     -1.07787363	    -16.64887667	     10.95448535	     -4.32827411	      4.67738631	     24.50971949	     -3.79135679	     -7.78537531	    -64.05887893	      8.97270276	      6.18193004	      1.76709906	    -11.84053217	      1.11153857	      2.73744263
      0.62066667	     -1.84863536	      1.68706519	      1.55707583	     -0.45895654	      1.07713250	      0.31088777	      9.00987816	      1.45134527	     -0.95986178	    -16.30871900	     11.00941309	     -4.24182846	      4.68177290	     24.81745295	     -3.73549906	     -8.02760065	    -63.07337743	      9.13502772	      6.43646709	      1.79220829	    -11.85722923	      1.01202467	      2.87068107
      0.62483333	     -1.82326567	      1.74787958	      1.40050796	     -0.45403654	      1.07768692	      0.31107166	      8.52803352	      1.40916961	     -0.83671066	    -15.94954713	     11.10344480	     -4.17177554	      4.68774096	     25.07188007	     -3.69814782	     -8.26254932	    -62.05029292	      9.29104684	      6.67336943	      1.83075644	    -11.92353669	      0.90717960	      3.13462275
      0.62900000	     -1.82877142	      1.81593041	      1.23511853	     -0.44913077	      1.07814157	      0.31124477	      8.09763200	      1.35413871	     -0.71478390	    -15.62418961	     11.16362753	     -4.08627483	      4.69077182	     25.34045169	     -3.64858267	     -8.50162484	    -60.97361504	      9.41644593	      6.87102054	      1.85244409	    -11.95054923	      0.81831346	      3.26406089
      0.63316667	     -1.81319900	      1.85495896	      1.08153835	     -0.44421152	      1.07856164	      0.31140257	      7.63242362	      1.33023735	     -0.59099242	    -15.27520975	     11.25744389	     -4.02480432	      4.69406625	     25.57699074	     -3.62692236	     -8.72013111	    -59.86780060	      9.53546429	      7.04287518	      1.89081281	    -12.00666655	      0.73763480	      3.53931537
      0.63733333	     -1.82796093	      1.89614025	      0.92269951	     -0.43929396	      1.07886577	      0.31155904	      7.21595053	      1.30006367	     -0.47806511	    -14.95839714	     11.34925710	     -3.95638571	      4.69617489	     25.82935641	     -3.60179600	     -8.94267717	    -58.71818534	      9.62503395	      7.18118390	      1.91963617	    -12.01206771	      0.66920749	      3.70764040
      0.64150000	     -1.87564597	      1.93345021	      0.76649878	     -0.43437388	      1.07905845	      0.31169214	      6.84237081	      1.27023105	     -0.36051131	    -14.65672018	     11.42413282	     -3.87353231	      4.69763507	     26.10100114	     -3.57102436	     -9.14819816	    -57.52308450	      9.68808781	      7.28597373	      1.93626039	    -11.98848386	      0.61805138	      3.82949997
      0.64566667	     -1.87139394	      1.95756706	      0.61898438	     -0.42946399	      1.07927155	      0.31181401	      6.40822570	      1.25366903	     -0.25397231	    -14.34617924	     11.54401829	     -3.80211715	      4.69742564	     26.30302105	     -3.55055249	     -9.33957206	    -56.29170681	      9.73565813	      7.35103239	      1.96965211	    -12.02709646	      0.55924849	      4.08699713
      0.64983333	     -1.91464918	      1.96528743	      0.47585648	     -0.42453487	      1.07934107	      0.31192126	      6.03138020	      1.25213047	     -0.14865731	    -14.05009159	     11.64611090	     -3.73961399	      4.69580748	     26.54389147	     -3.54307029	     -9.51658995	    -55.02724548	      9.75702752	      7.39606003	      1.99783785	    -12.00149235	      0.53369713	      4.24620375
      0.65400000	     -1.97487726	      1.97396262	      0.33263898	     -0.41960837	      1.07933947	      0.31202293	      5.68227023	      1.24745826	     -0.04446358	    -13.77293803	     11.73988904	     -3.66957054	      4.69498768	     26.78285550	     -3.52835269	     -9.68359266	    -53.71324268	      9.74704492	      7.41930417	      2.01249535	    -11.95628458	      0.51601277	      4.35420669
      0.65816667	     -1.99159507	      1.96084052	      0.20908661	     -0.41469360	      1.07934071	      0.31207955	      5.27762672	      1.26359982	      0.04613455	    -13.47943214	     11.86309437	     -3.60992568	      4.68944780	     26.96568406	     -3.52273924	     -9.81560842	    -52.36990410	      9.71966176	      7.38946917	      2.04425324	    -11.96737531	      0.51250568	      4.56276463
